<mxfile host="app.diagrams.net" modified="2020-09-28T05:59:11.838Z" agent="5.0 (Macintosh)" etag="Iy-DN3ZqvhM_BjYJJt7I" version="13.7.5" type="github">
  <diagram id="24BzfzFCTO4s2QphImuC" name="Page-1">
    <mxGraphModel dx="1001" dy="725" grid="1" gridSize="10" guides="1" tooltips="1" connect="1" arrows="1" fold="1" page="1" pageScale="1" pageWidth="850" pageHeight="1100" math="0" shadow="0">
      <root>
        <mxCell id="0" />
        <mxCell id="1" parent="0" />
        <mxCell id="ptHU8cl3qVk4jOxxzUVa-1" value="" style="points=[[0.5,0,0],[1,0.5,0],[0.5,1,0],[0,0.5,0],[0.145,0.145,0],[0.8555,0.145,0],[0.855,0.8555,0],[0.145,0.855,0]];verticalLabelPosition=bottom;html=1;verticalAlign=top;aspect=fixed;align=center;pointerEvents=1;shape=mxgraph.cisco19.rect;prIcon=router_with_firewall;fillColor=#FAFAFA;strokeColor=#005073;" parent="1" vertex="1">
          <mxGeometry x="180" y="182.62" width="50" height="50" as="geometry" />
        </mxCell>
        <mxCell id="ptHU8cl3qVk4jOxxzUVa-2" value="" style="points=[[0.5,0,0],[1,0.5,0],[0.5,1,0],[0,0.5,0],[0.145,0.145,0],[0.8555,0.145,0],[0.855,0.8555,0],[0.145,0.855,0]];verticalLabelPosition=bottom;html=1;verticalAlign=top;aspect=fixed;align=center;pointerEvents=1;shape=mxgraph.cisco19.rect;prIcon=wireless_router;fillColor=#FAFAFA;strokeColor=#005073;" parent="1" vertex="1">
          <mxGeometry x="180" y="330" width="50" height="60" as="geometry" />
        </mxCell>
        <mxCell id="ptHU8cl3qVk4jOxxzUVa-4" value="Internets" style="ellipse;shape=cloud;whiteSpace=wrap;html=1;align=center;" parent="1" vertex="1">
          <mxGeometry x="342.8" y="30" width="160" height="120" as="geometry" />
        </mxCell>
        <mxCell id="ptHU8cl3qVk4jOxxzUVa-5" value="" style="points=[[0.015,0.015,0],[0.985,0.015,0],[0.985,0.985,0],[0.015,0.985,0],[0.25,0,0],[0.5,0,0],[0.75,0,0],[1,0.25,0],[1,0.5,0],[1,0.75,0],[0.75,1,0],[0.5,1,0],[0.25,1,0],[0,0.75,0],[0,0.5,0],[0,0.25,0]];verticalLabelPosition=bottom;html=1;verticalAlign=top;aspect=fixed;align=center;pointerEvents=1;shape=mxgraph.cisco19.rect;prIcon=vpn_concentrator;fillColor=#FAFAFA;strokeColor=#005073;" parent="1" vertex="1">
          <mxGeometry x="400" y="100" width="45.6" height="35.62" as="geometry" />
        </mxCell>
        <mxCell id="ptHU8cl3qVk4jOxxzUVa-9" value="" style="pointerEvents=1;shadow=0;dashed=0;html=1;strokeColor=none;fillColor=#505050;labelPosition=center;verticalLabelPosition=bottom;verticalAlign=top;outlineConnect=0;align=center;shape=mxgraph.office.devices.ipad_mini;" parent="1" vertex="1">
          <mxGeometry x="598.5" y="170" width="33" height="47" as="geometry" />
        </mxCell>
        <mxCell id="ptHU8cl3qVk4jOxxzUVa-10" value="" style="fontColor=#0066CC;verticalAlign=top;verticalLabelPosition=bottom;labelPosition=center;align=center;html=1;outlineConnect=0;fillColor=#CCCCCC;strokeColor=#6881B3;gradientColor=none;gradientDirection=north;strokeWidth=2;shape=mxgraph.networks.security_camera;" parent="1" vertex="1">
          <mxGeometry x="593" y="380" width="50" height="40" as="geometry" />
        </mxCell>
        <mxCell id="ptHU8cl3qVk4jOxxzUVa-11" value="" style="fontColor=#0066CC;verticalAlign=top;verticalLabelPosition=bottom;labelPosition=center;align=center;html=1;outlineConnect=0;fillColor=#CCCCCC;strokeColor=#6881B3;gradientColor=none;gradientDirection=north;strokeWidth=2;shape=mxgraph.networks.security_camera;" parent="1" vertex="1">
          <mxGeometry x="590" y="440" width="50" height="40" as="geometry" />
        </mxCell>
        <mxCell id="ptHU8cl3qVk4jOxxzUVa-12" value="" style="fontColor=#0066CC;verticalAlign=top;verticalLabelPosition=bottom;labelPosition=center;align=center;html=1;outlineConnect=0;fillColor=#CCCCCC;strokeColor=#6881B3;gradientColor=none;gradientDirection=north;strokeWidth=2;shape=mxgraph.networks.security_camera;" parent="1" vertex="1">
          <mxGeometry x="590" y="500" width="50" height="40" as="geometry" />
        </mxCell>
        <mxCell id="S_oe4fzsN7BOF3GJXgTQ-4" value="" style="shape=flexArrow;endArrow=classic;html=1;exitX=1;exitY=0.5;exitDx=0;exitDy=0;exitPerimeter=0;" edge="1" parent="1" source="ptHU8cl3qVk4jOxxzUVa-5" target="ptHU8cl3qVk4jOxxzUVa-9">
          <mxGeometry width="50" height="50" relative="1" as="geometry">
            <mxPoint x="400" y="380" as="sourcePoint" />
            <mxPoint x="450" y="330" as="targetPoint" />
            <Array as="points">
              <mxPoint x="530" y="120" />
            </Array>
          </mxGeometry>
        </mxCell>
        <mxCell id="S_oe4fzsN7BOF3GJXgTQ-5" value="" style="shape=flexArrow;endArrow=classic;html=1;entryX=0.8555;entryY=0.145;entryDx=0;entryDy=0;entryPerimeter=0;" edge="1" parent="1" target="ptHU8cl3qVk4jOxxzUVa-1">
          <mxGeometry width="50" height="50" relative="1" as="geometry">
            <mxPoint x="400" y="118" as="sourcePoint" />
            <mxPoint x="450" y="330" as="targetPoint" />
            <Array as="points">
              <mxPoint x="300" y="118" />
            </Array>
          </mxGeometry>
        </mxCell>
        <mxCell id="S_oe4fzsN7BOF3GJXgTQ-8" value="" style="html=1;whiteSpace=wrap;shape=isoCube2;backgroundOutline=1;isoAngle=15;" vertex="1" parent="1">
          <mxGeometry x="400" y="460" width="115" height="70" as="geometry" />
        </mxCell>
        <mxCell id="S_oe4fzsN7BOF3GJXgTQ-9" value="" style="fontColor=#0066CC;verticalAlign=top;verticalLabelPosition=bottom;labelPosition=center;align=center;html=1;outlineConnect=0;fillColor=#CCCCCC;strokeColor=#6881B3;gradientColor=none;gradientDirection=north;strokeWidth=2;shape=mxgraph.networks.security_camera;" vertex="1" parent="1">
          <mxGeometry x="590" y="560" width="50" height="40" as="geometry" />
        </mxCell>
        <mxCell id="S_oe4fzsN7BOF3GJXgTQ-10" value="" style="fontColor=#0066CC;verticalAlign=top;verticalLabelPosition=bottom;labelPosition=center;align=center;html=1;outlineConnect=0;fillColor=#CCCCCC;strokeColor=#6881B3;gradientColor=none;gradientDirection=north;strokeWidth=2;shape=mxgraph.networks.security_camera;" vertex="1" parent="1">
          <mxGeometry x="590" y="620" width="50" height="40" as="geometry" />
        </mxCell>
        <mxCell id="S_oe4fzsN7BOF3GJXgTQ-11" value="" style="fontColor=#0066CC;verticalAlign=top;verticalLabelPosition=bottom;labelPosition=center;align=center;html=1;outlineConnect=0;fillColor=#CCCCCC;strokeColor=#6881B3;gradientColor=none;gradientDirection=north;strokeWidth=2;shape=mxgraph.networks.security_camera;" vertex="1" parent="1">
          <mxGeometry x="590" y="680" width="50" height="40" as="geometry" />
        </mxCell>
        <mxCell id="S_oe4fzsN7BOF3GJXgTQ-12" value="" style="fontColor=#0066CC;verticalAlign=top;verticalLabelPosition=bottom;labelPosition=center;align=center;html=1;outlineConnect=0;fillColor=#CCCCCC;strokeColor=#6881B3;gradientColor=none;gradientDirection=north;strokeWidth=2;shape=mxgraph.networks.security_camera;" vertex="1" parent="1">
          <mxGeometry x="593" y="740" width="50" height="40" as="geometry" />
        </mxCell>
        <mxCell id="S_oe4fzsN7BOF3GJXgTQ-13" value="" style="fontColor=#0066CC;verticalAlign=top;verticalLabelPosition=bottom;labelPosition=center;align=center;html=1;outlineConnect=0;fillColor=#CCCCCC;strokeColor=#6881B3;gradientColor=none;gradientDirection=north;strokeWidth=2;shape=mxgraph.networks.security_camera;" vertex="1" parent="1">
          <mxGeometry x="590" y="320" width="50" height="40" as="geometry" />
        </mxCell>
        <mxCell id="S_oe4fzsN7BOF3GJXgTQ-14" value="IP camera 1" style="text;html=1;strokeColor=none;fillColor=none;align=center;verticalAlign=middle;whiteSpace=wrap;rounded=0;" vertex="1" parent="1">
          <mxGeometry x="680" y="320" width="80" height="20" as="geometry" />
        </mxCell>
        <mxCell id="S_oe4fzsN7BOF3GJXgTQ-18" value="IP 192.168.11.201" style="text;html=1;strokeColor=none;fillColor=none;align=center;verticalAlign=middle;whiteSpace=wrap;rounded=0;" vertex="1" parent="1">
          <mxGeometry x="665" y="340" width="110" height="20" as="geometry" />
        </mxCell>
        <mxCell id="S_oe4fzsN7BOF3GJXgTQ-22" value="NVR" style="text;html=1;strokeColor=none;fillColor=none;align=center;verticalAlign=middle;whiteSpace=wrap;rounded=0;" vertex="1" parent="1">
          <mxGeometry x="437.5" y="480" width="40" height="20" as="geometry" />
        </mxCell>
        <mxCell id="S_oe4fzsN7BOF3GJXgTQ-24" value="IP camera 2" style="text;html=1;strokeColor=none;fillColor=none;align=center;verticalAlign=middle;whiteSpace=wrap;rounded=0;" vertex="1" parent="1">
          <mxGeometry x="680" y="380" width="80" height="20" as="geometry" />
        </mxCell>
        <mxCell id="S_oe4fzsN7BOF3GJXgTQ-25" value="IP 192.168.11.202" style="text;html=1;strokeColor=none;fillColor=none;align=center;verticalAlign=middle;whiteSpace=wrap;rounded=0;" vertex="1" parent="1">
          <mxGeometry x="665" y="400" width="110" height="20" as="geometry" />
        </mxCell>
        <mxCell id="S_oe4fzsN7BOF3GJXgTQ-28" value="IP camera 3" style="text;html=1;strokeColor=none;fillColor=none;align=center;verticalAlign=middle;whiteSpace=wrap;rounded=0;" vertex="1" parent="1">
          <mxGeometry x="680" y="440" width="80" height="20" as="geometry" />
        </mxCell>
        <mxCell id="S_oe4fzsN7BOF3GJXgTQ-29" value="IP 192.168.11.203" style="text;html=1;strokeColor=none;fillColor=none;align=center;verticalAlign=middle;whiteSpace=wrap;rounded=0;" vertex="1" parent="1">
          <mxGeometry x="665" y="460" width="110" height="20" as="geometry" />
        </mxCell>
        <mxCell id="S_oe4fzsN7BOF3GJXgTQ-30" value="IP camera 4" style="text;html=1;strokeColor=none;fillColor=none;align=center;verticalAlign=middle;whiteSpace=wrap;rounded=0;" vertex="1" parent="1">
          <mxGeometry x="680" y="500" width="80" height="20" as="geometry" />
        </mxCell>
        <mxCell id="S_oe4fzsN7BOF3GJXgTQ-31" value="IP 192.168.11.204" style="text;html=1;strokeColor=none;fillColor=none;align=center;verticalAlign=middle;whiteSpace=wrap;rounded=0;" vertex="1" parent="1">
          <mxGeometry x="665" y="520" width="110" height="20" as="geometry" />
        </mxCell>
        <mxCell id="S_oe4fzsN7BOF3GJXgTQ-32" value="IP camera 5" style="text;html=1;strokeColor=none;fillColor=none;align=center;verticalAlign=middle;whiteSpace=wrap;rounded=0;" vertex="1" parent="1">
          <mxGeometry x="680" y="560" width="80" height="20" as="geometry" />
        </mxCell>
        <mxCell id="S_oe4fzsN7BOF3GJXgTQ-33" value="IP 192.168.11.205" style="text;html=1;strokeColor=none;fillColor=none;align=center;verticalAlign=middle;whiteSpace=wrap;rounded=0;" vertex="1" parent="1">
          <mxGeometry x="665" y="580" width="110" height="20" as="geometry" />
        </mxCell>
        <mxCell id="S_oe4fzsN7BOF3GJXgTQ-34" value="IP camera 6" style="text;html=1;strokeColor=none;fillColor=none;align=center;verticalAlign=middle;whiteSpace=wrap;rounded=0;" vertex="1" parent="1">
          <mxGeometry x="680" y="620" width="80" height="20" as="geometry" />
        </mxCell>
        <mxCell id="S_oe4fzsN7BOF3GJXgTQ-35" value="IP 192.168.11.206" style="text;html=1;strokeColor=none;fillColor=none;align=center;verticalAlign=middle;whiteSpace=wrap;rounded=0;" vertex="1" parent="1">
          <mxGeometry x="665" y="640" width="110" height="20" as="geometry" />
        </mxCell>
        <mxCell id="S_oe4fzsN7BOF3GJXgTQ-36" value="IP camera 7" style="text;html=1;strokeColor=none;fillColor=none;align=center;verticalAlign=middle;whiteSpace=wrap;rounded=0;" vertex="1" parent="1">
          <mxGeometry x="680" y="680" width="80" height="20" as="geometry" />
        </mxCell>
        <mxCell id="S_oe4fzsN7BOF3GJXgTQ-37" value="IP 192.168.11.207" style="text;html=1;strokeColor=none;fillColor=none;align=center;verticalAlign=middle;whiteSpace=wrap;rounded=0;" vertex="1" parent="1">
          <mxGeometry x="665" y="700" width="110" height="20" as="geometry" />
        </mxCell>
        <mxCell id="S_oe4fzsN7BOF3GJXgTQ-38" value="IP camera 8" style="text;html=1;strokeColor=none;fillColor=none;align=center;verticalAlign=middle;whiteSpace=wrap;rounded=0;" vertex="1" parent="1">
          <mxGeometry x="680" y="740" width="80" height="20" as="geometry" />
        </mxCell>
        <mxCell id="S_oe4fzsN7BOF3GJXgTQ-39" value="IP 192.168.11.208" style="text;html=1;strokeColor=none;fillColor=none;align=center;verticalAlign=middle;whiteSpace=wrap;rounded=0;" vertex="1" parent="1">
          <mxGeometry x="665" y="760" width="110" height="20" as="geometry" />
        </mxCell>
        <mxCell id="S_oe4fzsN7BOF3GJXgTQ-40" value="IP 192.168.11.200" style="text;html=1;strokeColor=none;fillColor=none;align=center;verticalAlign=middle;whiteSpace=wrap;rounded=0;" vertex="1" parent="1">
          <mxGeometry x="405" y="430" width="110" height="20" as="geometry" />
        </mxCell>
        <mxCell id="S_oe4fzsN7BOF3GJXgTQ-41" value="" style="endArrow=none;html=1;exitX=0.783;exitY=0.143;exitDx=0;exitDy=0;exitPerimeter=0;" edge="1" parent="1" source="S_oe4fzsN7BOF3GJXgTQ-8" target="S_oe4fzsN7BOF3GJXgTQ-13">
          <mxGeometry width="50" height="50" relative="1" as="geometry">
            <mxPoint x="470" y="520" as="sourcePoint" />
            <mxPoint x="520" y="470" as="targetPoint" />
          </mxGeometry>
        </mxCell>
        <mxCell id="S_oe4fzsN7BOF3GJXgTQ-42" value="" style="endArrow=none;html=1;exitX=0.783;exitY=0.143;exitDx=0;exitDy=0;exitPerimeter=0;entryX=0;entryY=1;entryDx=0;entryDy=0;entryPerimeter=0;" edge="1" parent="1" target="ptHU8cl3qVk4jOxxzUVa-10">
          <mxGeometry width="50" height="50" relative="1" as="geometry">
            <mxPoint x="500.0450000000001" y="480.01" as="sourcePoint" />
            <mxPoint x="605.7776324898084" y="370" as="targetPoint" />
          </mxGeometry>
        </mxCell>
        <mxCell id="S_oe4fzsN7BOF3GJXgTQ-43" value="" style="endArrow=none;html=1;exitX=0.783;exitY=0.143;exitDx=0;exitDy=0;exitPerimeter=0;entryX=0;entryY=1;entryDx=0;entryDy=0;entryPerimeter=0;" edge="1" parent="1" target="ptHU8cl3qVk4jOxxzUVa-11">
          <mxGeometry width="50" height="50" relative="1" as="geometry">
            <mxPoint x="510.0450000000001" y="490.01" as="sourcePoint" />
            <mxPoint x="615.7776324898084" y="380" as="targetPoint" />
          </mxGeometry>
        </mxCell>
        <mxCell id="S_oe4fzsN7BOF3GJXgTQ-44" value="" style="endArrow=none;html=1;exitX=0.783;exitY=0.143;exitDx=0;exitDy=0;exitPerimeter=0;entryX=0;entryY=1;entryDx=0;entryDy=0;entryPerimeter=0;" edge="1" parent="1" target="ptHU8cl3qVk4jOxxzUVa-12">
          <mxGeometry width="50" height="50" relative="1" as="geometry">
            <mxPoint x="520.0450000000001" y="500.01" as="sourcePoint" />
            <mxPoint x="625.7776324898084" y="390" as="targetPoint" />
          </mxGeometry>
        </mxCell>
        <mxCell id="S_oe4fzsN7BOF3GJXgTQ-45" value="" style="endArrow=none;html=1;exitX=0;exitY=0;exitDx=115;exitDy=42.39094270578666;exitPerimeter=0;entryX=0;entryY=1;entryDx=0;entryDy=0;entryPerimeter=0;" edge="1" parent="1" source="S_oe4fzsN7BOF3GJXgTQ-8" target="S_oe4fzsN7BOF3GJXgTQ-9">
          <mxGeometry width="50" height="50" relative="1" as="geometry">
            <mxPoint x="530.0450000000001" y="510.01" as="sourcePoint" />
            <mxPoint x="635.7776324898084" y="400" as="targetPoint" />
          </mxGeometry>
        </mxCell>
        <mxCell id="S_oe4fzsN7BOF3GJXgTQ-46" value="" style="endArrow=none;html=1;exitX=0.809;exitY=0.843;exitDx=0;exitDy=0;exitPerimeter=0;entryX=0;entryY=1;entryDx=0;entryDy=0;entryPerimeter=0;" edge="1" parent="1" source="S_oe4fzsN7BOF3GJXgTQ-8" target="S_oe4fzsN7BOF3GJXgTQ-10">
          <mxGeometry width="50" height="50" relative="1" as="geometry">
            <mxPoint x="540.0450000000001" y="520.01" as="sourcePoint" />
            <mxPoint x="645.7776324898084" y="410" as="targetPoint" />
          </mxGeometry>
        </mxCell>
        <mxCell id="S_oe4fzsN7BOF3GJXgTQ-47" value="" style="endArrow=none;html=1;exitX=0.704;exitY=0.9;exitDx=0;exitDy=0;exitPerimeter=0;entryX=0;entryY=1;entryDx=0;entryDy=0;entryPerimeter=0;" edge="1" parent="1" source="S_oe4fzsN7BOF3GJXgTQ-8" target="S_oe4fzsN7BOF3GJXgTQ-11">
          <mxGeometry width="50" height="50" relative="1" as="geometry">
            <mxPoint x="550.0450000000001" y="530.01" as="sourcePoint" />
            <mxPoint x="655.7776324898084" y="420" as="targetPoint" />
          </mxGeometry>
        </mxCell>
        <mxCell id="S_oe4fzsN7BOF3GJXgTQ-48" value="" style="endArrow=none;html=1;exitX=0.583;exitY=0.971;exitDx=0;exitDy=0;exitPerimeter=0;entryX=0;entryY=1;entryDx=0;entryDy=0;entryPerimeter=0;" edge="1" parent="1" source="S_oe4fzsN7BOF3GJXgTQ-8" target="S_oe4fzsN7BOF3GJXgTQ-12">
          <mxGeometry width="50" height="50" relative="1" as="geometry">
            <mxPoint x="560.0450000000001" y="540.01" as="sourcePoint" />
            <mxPoint x="665.7776324898084" y="430" as="targetPoint" />
          </mxGeometry>
        </mxCell>
      </root>
    </mxGraphModel>
  </diagram>
</mxfile>
